<svg xmlns="http://www.w3.org/2000/svg" id="Layer_1" data-name="Layer 1" viewBox="0 0 400 400"><defs><style>.cls-1{fill:#1fa03a}</style></defs><rect width="298.53" height="298.53" x="50.74" y="50.74" rx="88.93" ry="88.93" style="fill:#dff7e5"/><rect width="260.33" height="260.33" x="69.84" y="69.84" rx="88.93" ry="88.93" style="fill:#bdefc8"/><path d="M239.32 170h-11.56c-2.07 0-3.74 1.68-3.74 3.75 0 .99.39 1.94 1.1 2.65l4.07 4.07-13.43 13.42a3.83 3.83 0 0 1-5.3 0l-.64-.64c-4.44-4.25-11.44-4.25-15.89 0l-19.1 19.1a3.757 3.757 0 0 0 0 5.31 3.757 3.757 0 0 0 5.31 0l19.1-19.1a3.83 3.83 0 0 1 5.3 0l.64.64a11.515 11.515 0 0 0 15.89 0l13.43-13.43 4.07 4.07a3.754 3.754 0 0 0 5.3-.05c.68-.7 1.07-1.63 1.07-2.6v-11.56c0-3.1-2.51-5.62-5.62-5.62Z" class="cls-1"/><path d="M241.19 237.4h-67.4c-6.2 0-11.23-5.03-11.23-11.23v-67.31c0-2.07-1.68-3.74-3.74-3.74s-3.75 1.68-3.75 3.74v67.31c.01 10.34 8.39 18.71 18.72 18.72h67.4c2.07 0 3.74-1.68 3.74-3.74s-1.68-3.74-3.74-3.74Z" class="cls-1"/></svg>