<svg xmlns="http://www.w3.org/2000/svg" width="500" height="500"><defs><clipPath id="a"><path d="M0 0h500v500H0z"/></clipPath></defs><g clip-path="url(#a)"><path fill="#3b82f6" d="M222.183 222.516a41.725 41.725 0 1 0 0 83.449h55.633a41.725 41.725 0 0 0 0-83.449Zm69.543 41.725a13.908 13.908 0 0 1-13.908 13.908h-55.635a13.908 13.908 0 0 1 0-27.816h55.633a13.908 13.908 0 0 1 13.91 13.908Zm27.816 83.449a13.908 13.908 0 0 1-13.908 13.908H194.367a13.908 13.908 0 0 1 0-27.816h111.265a13.908 13.908 0 0 1 13.909 13.908Zm35.27-220.848-23.06-23.032a69.1 69.1 0 0 0-49.165-20.376h-88.22a69.624 69.624 0 0 0-69.541 69.541V347.69a69.624 69.624 0 0 0 69.541 69.544h111.265a69.624 69.624 0 0 0 69.541-69.541V176.021a69.1 69.1 0 0 0-20.362-49.179Zm-19.666 19.666a43.115 43.115 0 0 1 5.257 6.467h-34.77v-34.77a40.779 40.779 0 0 1 6.453 5.243Zm12.211 201.182a41.725 41.725 0 0 1-41.725 41.725H194.367a41.725 41.725 0 0 1-41.725-41.725V152.975a41.725 41.725 0 0 1 41.725-41.724h83.449v41.724a27.816 27.816 0 0 0 27.816 27.816h41.725Z"/></g></svg>