<svg xmlns="http://www.w3.org/2000/svg" width="500" height="500"><defs><clipPath id="a"><path d="M0 0h500v500H0z"/></clipPath></defs><g clip-path="url(#a)"><path fill="#3b82f6" d="M400.65 331.684v25.079a43.936 43.936 0 0 1-43.888 43.888H143.593a43.936 43.936 0 0 1-43.888-43.889v-25.078a43.936 43.936 0 0 1 43.888-43.888h25.079a12.54 12.54 0 1 1 0 25.079h-25.079a18.832 18.832 0 0 0-18.809 18.809v25.079a18.832 18.832 0 0 0 18.809 18.809h213.17a18.832 18.832 0 0 0 18.809-18.809v-25.079a18.832 18.832 0 0 0-18.809-18.809h-25.079a12.54 12.54 0 0 1 0-25.079h25.079a43.936 43.936 0 0 1 43.887 43.888Zm0-188.091v12.539a43.936 43.936 0 0 1-43.888 43.888h-6.27v12.539a37.664 37.664 0 0 1-37.618 37.618h-50.157v42.571l16.238-16.226a12.538 12.538 0 1 1 17.731 17.731l-31.035 31.052a21.868 21.868 0 0 1-30.9 0l-31.046-31.051a12.538 12.538 0 0 1 17.731-17.731l16.2 16.2v-42.558h-50.155a37.664 37.664 0 0 1-37.618-37.618v-12.542h-6.27a43.936 43.936 0 0 1-43.888-43.885v-12.54a43.933 43.933 0 0 1 43.888-43.875h37.618a43.936 43.936 0 0 1 43.888 43.888v12.539a43.936 43.936 0 0 1-43.888 43.888h-6.27v12.539a12.552 12.552 0 0 0 12.539 12.539h125.395a12.552 12.552 0 0 0 12.539-12.539V200.02h-6.27a43.936 43.936 0 0 1-43.888-43.888v-12.539a43.936 43.936 0 0 1 43.888-43.888h37.618a43.936 43.936 0 0 1 43.888 43.888Zm-219.439 31.348a18.832 18.832 0 0 0 18.809-18.809v-12.539a18.832 18.832 0 0 0-18.809-18.809h-37.618a18.832 18.832 0 0 0-18.809 18.809v12.539a18.832 18.832 0 0 0 18.809 18.809Zm194.36-31.348a18.832 18.832 0 0 0-18.809-18.809h-37.618a18.832 18.832 0 0 0-18.809 18.809v12.539a18.832 18.832 0 0 0 18.809 18.809h37.618a18.832 18.832 0 0 0 18.809-18.809Z"/></g></svg>