<svg xmlns="http://www.w3.org/2000/svg" data-name="Layer 1" viewBox="0 0 400 400"><rect width="298.53" height="298.53" x="50.74" y="50.74" rx="88.93" ry="88.93" style="fill:#ffeae9"/><rect width="260.33" height="260.33" x="69.84" y="69.84" rx="88.93" ry="88.93" style="fill:#f9d4d4"/><path d="M226.03 200v22.32c0 2.05-1.67 3.72-3.72 3.72s-3.72-1.67-3.72-3.72V200c0-2.05 1.67-3.72 3.72-3.72s3.72 1.67 3.72 3.72Zm-27.59-19.65 11.42 41.02c.65 2.34-1.11 4.66-3.54 4.66-1.65 0-3.09-1.09-3.54-2.68l-2.39-8.48h-19.36l-2.39 8.48a3.684 3.684 0 0 1-3.54 2.68c-2.43 0-4.2-2.32-3.54-4.66l11.5-41.31a7.85 7.85 0 0 1 4.08-5.23c2.11-1.09 4.54-1.15 6.84-.19 2.18.91 3.86 3.04 4.48 5.71Zm-.16 27.09-7.17-25.42c-.11-.42-.71-.42-.81 0l-7.17 25.42h15.16Zm42.63-14.88c-2.05 0-3.72 1.67-3.72 3.72v29.75c0 6.15-5.01 11.16-11.16 11.16h-52.07c-6.15 0-11.16-5.01-11.16-11.16v-52.07c0-6.15 5.01-11.16 11.16-11.16h29.75c2.05 0 3.72-1.67 3.72-3.72s-1.67-3.72-3.72-3.72h-29.75c-10.25 0-18.6 8.34-18.6 18.6v52.07c0 10.25 8.34 18.6 18.6 18.6h52.07c10.25 0 18.6-8.34 18.6-18.6v-29.75c0-2.05-1.67-3.72-3.72-3.72Zm-25.47-17.92 6.95 2.93 2.77 6.94c.6 1.5 2.05 2.48 3.67 2.48s3.07-.99 3.67-2.48l2.76-6.9 6.9-2.76c1.5-.6 2.48-2.05 2.48-3.67s-.99-3.07-2.48-3.67l-6.9-2.76-2.76-6.9c-.61-1.5-2.06-2.48-3.67-2.48s-3.07.99-3.67 2.48l-2.74 6.85-6.84 2.59a3.952 3.952 0 0 0-.13 7.34Z" style="fill:#a55151"/></svg>