<svg xmlns="http://www.w3.org/2000/svg" data-name="Layer 1" viewBox="0 0 400 400"><rect width="298.53" height="298.53" x="50.74" y="50.74" rx="88.93" ry="88.93" style="fill:#f0f8ff"/><rect width="260.33" height="260.33" x="69.84" y="69.84" rx="88.93" ry="88.93" style="fill:#d4ebfc"/><path d="M210.78 238.54c-1.24.94-2.57 1.92-3.69 2.9h9.49c2.29 0 4.14 1.86 4.14 4.14s-1.86 4.14-4.14 4.14H200c-2.29 0-4.14-1.86-4.14-4.14 0-6.22 5.28-10.18 9.95-13.68 3.11-2.33 6.63-4.97 6.63-7.04 0-2.29-1.86-4.14-4.14-4.14s-4.14 1.86-4.14 4.14-1.86 4.14-4.14 4.14-4.14-1.86-4.14-4.14c0-6.87 5.57-12.43 12.43-12.43s12.43 5.57 12.43 12.43c0 6.22-5.28 10.18-9.95 13.68Zm34.81-26.11c-2.29 0-4.14 1.86-4.14 4.14V229h-4.14c-2.29 0-4.14-1.86-4.14-4.14v-8.29c0-2.29-1.86-4.14-4.14-4.14s-4.14 1.86-4.14 4.14v8.29c0 6.87 5.57 12.43 12.43 12.43h4.14v8.29c0 2.29 1.86 4.14 4.14 4.14s4.14-1.86 4.14-4.14v-29.01c0-2.29-1.86-4.14-4.14-4.14ZM204.15 200v-20.72c0-2.29-1.86-4.14-4.14-4.14s-4.14 1.86-4.14 4.14v16.58h-12.43c-2.29 0-4.14 1.86-4.14 4.14s1.86 4.14 4.14 4.14h16.58c2.29 0 4.14-1.86 4.14-4.14Zm41.44-41.44c-2.29 0-4.14 1.86-4.14 4.14v9.84c-15.17-22.89-46.03-29.16-68.92-13.99s-29.16 46.03-13.99 68.92a49.721 49.721 0 0 0 23.38 18.86c.48.19.99.28 1.51.28 2.29 0 4.15-1.85 4.15-4.14 0-1.71-1.05-3.25-2.64-3.87-21.35-8.25-31.96-32.25-23.71-53.6s32.25-31.96 53.6-23.71a41.4 41.4 0 0 1 20.96 17.97h-10.92c-2.29 0-4.14 1.86-4.14 4.14s1.86 4.14 4.14 4.14h12.43c6.87 0 12.43-5.57 12.43-12.43v-12.43c0-2.29-1.86-4.14-4.14-4.14Z" style="fill:#48a4fd"/></svg>