<svg xmlns="http://www.w3.org/2000/svg" data-name="Layer 1" viewBox="0 0 400 400"><rect width="298.53" height="298.53" x="50.74" y="50.74" rx="88.93" ry="88.93" style="fill:#f8eeff"/><rect width="260.33" height="260.33" x="69.84" y="69.84" rx="88.93" ry="88.93" style="fill:#efdcff"/><path d="M235.94 211.87c-4.97-4.75-12.83-4.73-17.78.02l-6.05 4.81c-13.74-6.05-23.21-15.5-28.85-28.79l4.84-6.08c4.76-4.95 4.77-12.81.03-17.78 0 0-7.69-10-7.82-10.12-5.01-5.01-13.16-5.01-17.97-.2l-4.78 4.17c-4.78 4.78-7.41 11.22-7.41 18.17 0 31.71 42.05 73.76 73.76 73.76 6.95 0 13.4-2.63 18.36-7.62l3.78-4.36c5.01-5.01 5.01-13.17 0-18.18-.13-.13-10.12-7.82-10.12-7.82Zm4.06 20.34-3.78 4.36c-3.2 3.2-7.56 4.97-12.29 4.97-28.89 0-65.45-40.58-65.45-65.45 0-4.73 1.76-9.09 4.76-12.1l4.78-4.17c.89-.89 2.06-1.33 3.22-1.33 1.1 0 2.19.39 3.05 1.17 0 0 7.65 9.95 7.78 10.07.86.86 1.33 2 1.33 3.21s-.47 2.35-1.33 3.21c-.11.11-6.79 8.49-6.79 8.49a4.175 4.175 0 0 0-.63 4.07c6.56 17.2 18.87 29.52 36.59 36.63 1.38.56 2.96.33 4.13-.61 0 0 8.38-6.67 8.49-6.79a4.548 4.548 0 0 1 6.43 0c.12.12 10.06 7.77 10.06 7.77 1.62 1.79 1.56 4.56-.35 6.48Zm-2.63-77.88c0-2.3 1.86-4.15 4.15-4.15h4.15c2.29 0 4.15 1.86 4.15 4.15s-1.86 4.15-4.15 4.15h-4.15c-2.29 0-4.15-1.86-4.15-4.15Zm-16.61 0c0-2.3 1.86-4.15 4.15-4.15h4.15c2.29 0 4.15 1.86 4.15 4.15s-1.86 4.15-4.15 4.15h-4.15c-2.29 0-4.15-1.86-4.15-4.15Zm-16.61 0c0-2.3 1.86-4.15 4.15-4.15h4.15c2.29 0 4.15 1.86 4.15 4.15s-1.86 4.15-4.15 4.15h-4.15c-2.29 0-4.15-1.86-4.15-4.15Zm-16.61 0c0-2.3 1.86-4.15 4.15-4.15h4.15c2.29 0 4.15 1.86 4.15 4.15s-1.86 4.15-4.15 4.15h-4.15c-2.29 0-4.15-1.86-4.15-4.15Zm62.29 16.61c0 2.3-1.86 4.15-4.15 4.15h-4.15c-2.29 0-4.15-1.86-4.15-4.15s1.86-4.15 4.15-4.15h4.15c2.29 0 4.15 1.86 4.15 4.15Zm-45.68 0c0-2.3 1.86-4.15 4.15-4.15h20.76c2.29 0 4.15 1.86 4.15 4.15s-1.86 4.15-4.15 4.15H208.3c-2.29 0-4.15-1.86-4.15-4.15Z" style="fill:#8c10f9"/></svg>