<svg xmlns="http://www.w3.org/2000/svg" width="500" height="500"><defs><clipPath id="a"><path d="M0 0h500v500H0z"/></clipPath></defs><g data-name="Call Detect"><g fill="#3b82f6" clip-path="url(#a)" data-name="Group 5054"><path d="M250.5 71.848c-98.512 0-178.652 80.14-178.652 178.652s80.14 178.648 178.652 178.648S429.148 349.012 429.148 250.5 349.012 71.848 250.5 71.848Zm14.888 326.77V384.49a14.888 14.888 0 1 0-29.775 0v14.128a149.119 149.119 0 0 1-133.23-133.23h14.128a14.888 14.888 0 1 0 0-29.775h-14.128a149.1 149.1 0 0 1 133.23-133.23v14.128a14.888 14.888 0 1 0 29.775 0v-14.128a149.119 149.119 0 0 1 133.23 133.23H384.49a14.888 14.888 0 1 0 0 29.775h14.128a149.119 149.119 0 0 1-133.23 133.23Z" data-name="fraud-detection (1)"/><path d="M179.439 216.182c0 44.95 59.6 104.49 104.49 104.49a36.149 36.149 0 0 0 25.769-10.473l5.88-6.766a18.133 18.133 0 0 0-.294-25.475c-.177-.177-14.356-11.061-14.356-11.061a18.272 18.272 0 0 0-25.181 0l-8.59 6.884c-18.827-8-32.182-21.416-40.772-40.89l6.825-8.59a18.157 18.157 0 0 0 0-25.181s-10.885-14.179-11.061-14.355a18.216 18.216 0 0 0-25.769 0l-6.178 5.354a36.154 36.154 0 0 0-10.763 26.005Z" data-name="phone-flip (1)"/></g></g></svg>