<svg xmlns="http://www.w3.org/2000/svg" id="Layer_1" data-name="Layer 1" viewBox="0 0 50 50"><defs><style>.cls-1{fill:#48a4fd}</style></defs><rect width="46.8" height="46.8" x="1.6" y="1.6" rx="10.6" ry="10.6" style="fill:none;stroke:#d6d6d6;stroke-miterlimit:10;stroke-width:.5px"/><path d="M25 31.43c3.55 0 6.42-2.88 6.43-6.43v-3.21c0-3.55-2.88-6.43-6.43-6.43s-6.43 2.88-6.43 6.43V25c0 3.55 2.88 6.42 6.43 6.43Zm-2.41-7.23h-2.41v-1.61h2.41c.44 0 .8-.36.8-.8s-.36-.8-.8-.8h-2.34c.39-2.32 2.4-4.01 4.75-4.02 2.35 0 4.35 1.7 4.75 4.02h-2.34c-.44 0-.8.36-.8.8s.36.8.8.8h2.41v1.61h-2.41c-.44 0-.8.36-.8.8s.36.8.8.8h2.34a4.816 4.816 0 0 1-9.5 0h2.34c.44 0 .8-.36.8-.8s-.36-.8-.8-.8Z" class="cls-1"/><path d="M33.84 25c-.44 0-.8.36-.8.8 0 3.99-3.24 7.22-7.23 7.23H24.2c-3.99 0-7.22-3.24-7.23-7.23 0-.44-.36-.8-.8-.8s-.8.36-.8.8c0 4.88 3.96 8.83 8.84 8.84h1.61c4.88 0 8.83-3.96 8.84-8.84 0-.44-.36-.8-.8-.8Z" class="cls-1"/></svg>