<svg xmlns="http://www.w3.org/2000/svg" width="80" height="80" fill="none"><path fill="url(#a)" d="M78.112 30.552c.093.013.755.289.755.354-.273.35-.521.575-.98.648-.318.049-.818.08-1.149.096-.97.043-1.952-.04-2.922-.002l.528.092c.795.135.44.673-.134.841-.327.096-.923.145-1.278.163-1.042.054-2.084-.055-3.12-.067l.822.192c.563.054 2.375.023 2.752.324.06.05.029.053-.033.095-.212.142-.89.333-1.165.401-1.337.338-2.591.172-3.95.084l1.772.451c-.053 1.018-1.743.75-2.268 1.093-.154.101-.282.447-.425.614-.159.185-.653.691-.851.775-.2.084-.44.064-.653.195-.26.16-.297.434-.463.641-.499.627-1.24.584-1.794 1.007-.161.123-.233.352-.403.507-.1.09-.848.573-.956.613-.177.066-.789-.12-1.037-.025-.16.646-.514.989-1.22.959-.398-.017-.897-.317-1.246-.258-.324.054-1.02.853-1.558.986s-.975-.214-1.527-.216c-.196.029-.228.24-.362.359-.809.716-1.967.309-2.846-.03-.283.56-1.181 1.13-1.803.981-.274-.065-1.486-.627-1.615-.597-.195.332-.032.712-.426 1-.341.248-.38-.006-.614-.113-.749-.345-.828.27-1.265.333-.358.05-.647-.217-1.021-.095l-.646-.612c.05.5-.21.597-.657.451-.16.165 1.637 2.859 1.875 3.151.514.634 1.198 1.206 1.733 1.843.867 1.035 1.798 2.29 1.307 3.697-.62.119-1.052-.306-1.5-.638.092.407.292.8.376 1.208.017.082.064.264-.082.21-.19-.072-.757-.597-.92-.772-.338-.361-.583-.822-.95-1.16.048.444.66 1.851.564 2.19-.036.129-.216.288-.35.312-.594.104-.935-.915-1.328-1.214-.029.506.563 1.742-.082 2.013-.428.18-1.201-.116-1.395-.53l-.228-.71c-.079.318-.127.712-.25 1.011-.064.151-.245.505-.425.46-.512-.125-.862-1.323-.901-1.794l-.393 1.063c-.46.518-1.027.303-1.37-.203l-.27-.796c-.213.656-.288 1.43-.886 1.867-.447-.365-.52-.943-.788-1.416-.098.353-.035.683-.366.93-.46.345-1.107.546-1.43-.069-.223-.422.186-1.21.121-1.698l-.88 1.227c-1.52.4-.289-1.737-.366-2.452l-1.016 1.418c-.132.141-.62.547-.787.58-.102.02-.108.005-.089-.087.036-.182.364-1.211.317-1.267-.343.27-.828.702-1.294.693-.212-.003-.305-.444-.329-.614-.253-1.819 1.59-3.432 2.607-4.752a15.96 15.96 0 0 0 2.101-3.703c-.382.432-.682.24-.82-.257-.162.153-.335.563-.554.617-.108.027-.221-.044-.346-.025-.235.032-.376.219-.669.182-.243-.032-.543-.359-.757-.424-.338-.101-.62.306-.955.358-.425-.193-.607-.644-.557-1.093-.069-.077-1.637.763-1.935.763-.147 0-.966-.351-1.105-.452-.223-.161-.249-.422-.495-.541-.96.386-1.935.803-2.86.1-.08-.06-.11-.19-.205-.25-.378-.24-1.112.316-1.604.224-.567-.106-1.275-.88-1.676-.937-.552-.08-1.063.459-1.847.207-.492-.158-.554-.722-.758-.806a2.329 2.329 0 0 1-1.974-.572c-.23-.206-.223-.356-.549-.556-.628-.389-1.177-.226-1.724-.885-.214-.259-.23-.536-.577-.657-.319-.113-.477-.03-.797-.249-.386-.262-.895-1.083-1.124-1.216-.598-.346-2.095.029-2.36-1l1.772-.517-2.264.192a6.524 6.524 0 0 1-1.87-.16c-.1-.023-1.157-.34-1.049-.482.909-.308 1.892-.338 2.847-.395l.96-.25-4.225.186c-.442-.125-1.047-.155-1.127-.703l.562-.256c-1.066-.049-2.187.064-3.248 0-.607-.037-1.164-.09-1.477-.674.048-.202 1.14-.414 1.347-.42.264-.01.466.053.716.067.077.003.363.045.363-.068-.257.007-.503-.07-.748-.134-.743-.194-1.829-.434-2.513-.69-.313-.117-.379-.3-.478-.593.27-.086.461-.147.754-.13.987.057 2.233.523 3.29.636.352.037.808.057 1.17.076.106.005.448.047.495-.068a10.067 10.067 0 0 1-3.128-.761c-.447-.186-1.517-.618-1.741-.998-.067-.112-.134-.228-.118-.366l6.233 1.353a20.016 20.016 0 0 1-4.047-1.664c-.624-.338-1.215-.623-1.53-1.3a45.492 45.492 0 0 0 8.43 2.19l-.098-.097c-1.283-.551-2.901-.85-4.126-1.49-.273-.14-1.563-1.103-1.682-1.313-.027-.05-.073-.19 0-.193l9.844 2.514-4.365-1.869c-.019-.124.052-.171.165-.191.516-.093 1.645-.002 2.233.003.375.003.504-.059.936.042 1.864.437 3.826 1.43 5.693 1.95.4.088-.137-.682-.103-.706 1.846-.166 3.578.522 5.359.762 2.726.367 5.402-.299 8.128-.25.187.003.347.065.52.07 1.659.048 3.292.063 4.925.389.216.005.353-.246.428-.42.177-.42.503-1.51.573-1.951.063-.409-.043-.587-.346-.853-.146-.324 1.302-.747 1.576-.773 2.458-.237 2.143 2.283 3.154 3.603.096.125.216.268.389.268.826-.152 1.659-.3 2.495-.392 1.368-.152 3.53-.397 4.855-.321 1.496.084 2.847.338 4.396.255 2.274-.12 4.353-1.01 6.626-1.162.12-.008.243.009.363.004l-.165.771 5.87-2.224 2.333-.093.658.128-3.945 1.991 9.554-2.765c.097.086-.507.666-.59.742a7.267 7.267 0 0 1-1.215.87l-3.707 1.545c2.8-.405 5.438-1.423 8.07-2.383-.251.209-.414.562-.62.775-.439.454-2.433 1.435-3.097 1.729-.516.229-1.067.399-1.597.59l.266.036 5.705-1.583a.808.808 0 0 1-.103.446c-.224.392-2.074 1.236-2.569 1.407-.655.227-1.373.328-2.051.468-.017.107.16.07.231.065 1.457-.082 2.925-.659 4.341-.829.581-.07 1.285-.07.607.597l-3.015 1.004c.436.047.994-.064 1.41 0l-.005-.006Z"/><defs><linearGradient id="a" x1="5.486" x2="64.447" y1="29.671" y2="48.203" gradientUnits="userSpaceOnUse"><stop stop-color="#B04BF4"/><stop offset="1" stop-color="#48A4FD"/></linearGradient></defs></svg>