<svg xmlns="http://www.w3.org/2000/svg" data-name="Layer 1" viewBox="0 0 50 50"><rect width="46.8" height="46.8" x="1.6" y="1.6" rx="10.6" ry="10.6" style="fill:none;stroke:#d6d6d6;stroke-miterlimit:10;stroke-width:.5px"/><path d="M24.31 36.14c-.3 0-.6-.07-.88-.2a2.014 2.014 0 0 1-1.11-2.43l1.45-4.8h-3.42a2.783 2.783 0 0 1-2.67-3.59l2.81-9.29a2.766 2.766 0 0 1 2.67-1.98h3.43c1.33 0 2.41 1.08 2.41 2.42 0 .29-.05.57-.15.84l-1.56 4.17h2.37a2.787 2.787 0 0 1 2.31 4.35l-5.94 9.56c-.37.58-1.02.94-1.71.94Zm-1.15-20.43c-.41 0-.77.27-.89.66l-2.81 9.29a.932.932 0 0 0 .89 1.2h4.67a.935.935 0 0 1 .89 1.2l-1.81 5.98c-.03.09.01.19.1.22h.01c.08.05.19.03.24-.05v-.02l5.94-9.56c.21-.29.24-.67.07-.99a.914.914 0 0 0-.82-.5h-3.71a.935.935 0 0 1-.87-1.26l2.03-5.42a.559.559 0 0 0-.33-.72.628.628 0 0 0-.19-.03h-3.43Z" style="fill:#b04bf4"/></svg>