<svg xmlns="http://www.w3.org/2000/svg" id="Layer_1" data-name="Layer 1" viewBox="0 0 387.39 189.66"><defs><linearGradient id="linear-gradient" x1="182.7" x2="206.45" y1="347.13" y2="348.33" gradientTransform="translate(0 -308)" gradientUnits="userSpaceOnUse"><stop offset="0" stop-color="#0064e1"/><stop offset=".4" stop-color="#0064e1"/><stop offset=".83" stop-color="#0073ee"/><stop offset="1" stop-color="#0082fb"/></linearGradient><linearGradient id="linear-gradient-2" x1="180.19" x2="180.19" y1="352.94" y2="344.18" gradientTransform="translate(0 -308)" gradientUnits="userSpaceOnUse"><stop offset="0" stop-color="#0082fb"/><stop offset="1" stop-color="#0064e0"/></linearGradient><style>.cls-6{fill:#ea4335}.cls-19{fill:#0e71d0}.cls-32{fill:#127bd5}.cls-46{fill:#f16a60}.cls-49{fill:#176286}</style></defs><rect width="78.64" height="78.64" x="53.84" y="15.41" rx="22" ry="22" style="fill:#ffeae9" transform="rotate(-7.74 93.122 54.711)"/><rect width="78.64" height="78.64" x="254.07" y="15.41" rx="22" ry="22" style="fill:#dff7e5" transform="rotate(11.16 293.28 54.685)"/><rect width="78.64" height="78.64" x="153.15" y=".42" rx="22" ry="22" style="fill:#f0f8ff" transform="rotate(-.9 191.955 39.706)"/><rect width="78.64" height="78.64" x="53.84" y="104.39" rx="22" ry="22" style="fill:#d9f5fc" transform="rotate(4.07 93.017 143.507)"/><rect width="78.64" height="78.64" x="254.07" y="104.39" rx="22" ry="22" style="fill:#fff1f0" transform="rotate(-5.23 293.154 143.608)"/><rect width="78.64" height="78.64" x="153.15" y="110.59" rx="22" ry="22" style="fill:#fff7e3" transform="rotate(-.9 191.732 149.208)"/><path d="m83.25 135.29.06.02.03 1.08c1.83-.02 3.65-.05 5.46-.1.15-.02.28 0 .4.06.54-.09 1.14.44 1.12.98l.07.06c.03.87.05 1.8.07 2.71 0 .07 0 .15-.01.23l-.03.23c.09.24.08.54 0 .78l-.04.07c-1.07.65-2.16 1.29-3.28 1.94-.11.06-.14.13-.13.26l-.06.03-.07-.05c-.19-2.96-2.78-4.53-5.57-3.68-3.07.95-3.62 5.47-1.51 7.61l.05.13v.06l-4.76 2.83-.06-.03c-.04-1.06 0-2.14-.03-3.21-.05-3.05-.12-6.11-.17-9.16 0-.44.01-.74.28-1.09.48-.64 1.02-.47 1.72-.49 1.86-.05 3.72-.07 5.58-.14.29-.01.59.01.88 0v-1.12Z" class="cls-32"/><path d="M93.82 151.44c.21.1.42.2.63.31s.41.21.62.33c3.18 1.79 6.51 3.68 9.58 5.44.13.05.23.12.3.21-.22.17-.39.28-.69.31-.83.07-1.77.01-2.61.03-5.96.11-11.92.22-17.88.28-.11 0-.2.04-.33.03-.6-.06-1.23-.7-1.28-1.3-.08-.9-.01-2-.03-2.93.13-.07.28-.1.45-.08 2.55-.01 5.08-.05 7.6-.12.46-.03.78-.37.99-.73l.07-.02.06-.09c.46-.29.7-.74.66-1.29l-.02-1.28c0-.06.02-.09.09-.06.63.25 1.25.58 1.79.98Z" style="fill:#28a7e9"/><path d="M103.74 133.97c0 .06-.02.09-.08.08-1.87.05-3.77.06-5.66.08-.1 0-.21 0-.31-.01l-.31-.03c-2.36.11-4.73.14-7.09.11l-.02.06-6.96.11c.02.3 0 .6-.05.9-.05-.03-.03-.11-.03-.15-.01-1.17-.04-2.34-.06-3.5-.03-1.91 1.69-1.56 3.02-1.58 4.77-.09 9.55-.16 14.32-.22.62 0 1.4-.09 2.01-.05s1.15.68 1.2 1.27c.07.92.01 2.01.03 2.96Z" style="fill:#096fc0"/><path d="m105.51 156.4-.05.04-10.01-5.66v-.07c.68-.5 1.41-.94 2.18-1.29 1.48-.97 3.03-1.85 4.6-2.66.54-.41 1.12-.76 1.74-1.04l.02-.08.72-.4c.3-.13.49-.33.57-.6l.07-.02c.05.51-.01 1.14 0 1.67.04 2.38.08 4.76.11 7.15.01.98.09 1.98.06 2.96Z" style="fill:#148fde"/><path d="M90.4 141.35c.11 1.54.15 3.09.08 4.63-.08.08-.18.15-.32.2-3.21 1.93-6.43 3.86-9.66 5.8l.03.05s-.11.03-.15.03h-1.64c-.86 0-1.71.01-2.55.03-.91-.06-1.17-.77-1.21-1.57l4.82-2.86.13.04c1.82 1.54 5.07 1.14 6.28-.98.5-.87.73-2 .63-2.99l.06-.08c0-.19 0-.22.16-.33.86-.52 1.74-1 2.6-1.52.24-.15.48-.37.75-.44Z" class="cls-19"/><path d="M103.85 140.34c-.06.03-.13.06-.2.07-1.89.02-3.82.05-5.78.08l-.39-.03s-.01.02-.03 0l-.06-.02-.08-6.31.06-.04c2.07-.03 4.14-.02 6.21-.08.05 0 .11 0 .15-.03.04 2.12.08 4.24.11 6.36Z" style="fill:#50d8fe"/><path d="m103.85 140.34.06 3.03-.03 1.66-2.82 1.68-.2.06c-.02.05-.04.05-.06 0-1.06.1-2.13.11-3.2.03l-.04-.32c-.05-1.99-.09-3.97-.12-5.92l.05-.1c1.41-.02 2.83-.06 4.25-.09.71-.01 1.41.02 2.12-.03Z" style="fill:#56b9ed"/><path d="M90.48 145.97c.09.31.08.67 0 .98.09.46.1.98.1 1.45.01.16.02.33-.05.48.09.24.08.52 0 .76.03.02.05.04.06.08.04.16.04.92 0 1.09l-.06.04c.02.61-.65 1.03-1.19 1.12l-6.93.09-.32-.03h-1.57c-.03 0-.17.02-.14-.04 1.1-.73 2.27-1.36 3.4-2.04 1.63-.98 3.26-1.98 4.89-2.96.51-.31 1.07-.66 1.59-.94.07-.04.13-.08.21-.08Z" style="fill:#0c6acc"/><path d="m90.29 134.2.04.1c.03.7.05 1.4.06 2.09l-.05.05-.1.02c-.34-.1-.69-.14-1.05-.11-.55-.03-1.12.02-1.67.03-1.2.01-2.39.03-3.59.06h-.66l-.03-1.15v-.98l7.04-.11Z" style="fill:#0074ce"/><path d="M91.24 153.18c-.04.13-.3.44-.41.53-.45.37-.84.26-1.37.28-1.85.06-3.72.09-5.58.11-.58 0-1.18-.03-1.75.03 0-.48-.02-.95-.03-1.43l.12-.04c2.24-.04 4.51-.07 6.82-.1l.52.03.28-.05c.67.07 1.24-.37 1.39-1.04l.07-.06.06.05c.03.52.03 1.06-.03 1.58l-.08.11Z" style="fill:#1e7fb0"/><path d="M105.4 157.16c-.12.3-.21.38-.45.56-.29-.11-.55-.3-.82-.45-3.45-1.93-6.87-3.9-10.31-5.83l.06-.05c.29 0 .54-.14.79-.28l.08.02.08-.02c3.52 1.99 7.04 3.98 10.56 5.98v.07Z" style="fill:#117cbf"/><path d="m95.45 150.71 10.06 5.69c0 .3 0 .48-.11.76l-10.65-6.03c.16-.19.46-.38.7-.42Z" style="fill:#1388d4"/><path d="M89.56 152.59c-2.06.05-4.12.08-6.18.11H82.1v-.67c2.41-.02 4.82-.11 7.24-.12.55-.08 1.1-.49 1.19-1.06.02-.02.05-.03.06-.02.06.08.02.61 0 .73-.09.51-.5.99-1.04 1.03Z" style="fill:#124e6c"/><path d="M105.34 144.63c-.04.1-.05.19-.12.29-.16.24-.96.63-1.26.8-.02 0-.06 0-.06-.02a2.88 2.88 0 0 1-.02-.83l.02-1.48c.11.05.23.11.33.16.26.15.91.48 1.02.74.03.07.07.25.08.33Z" style="fill:#0a2767"/><path d="M103.91 143.39V145l.06.71c-.58.35-1.15.7-1.74 1.04-.38.04-.8.05-1.2.05-.03 0-.06 0-.09-.02s-.06-.02-.09-.04l3.01-1.79.04-1.6v.03Z" style="fill:#1968a8"/><path d="m78.74 152.06-2.55.03c.3.02.59-.03.88-.03h1.67Z" class="cls-32"/><path d="M82.1 152.03c-.51 0-1.03.01-1.54 0h1.54Z" class="cls-19"/><path d="M86.9 143.65c0 .21.04.41.03.63-.03.92-.36 2.13-.93 2.86-1.42 1.83-4.49 2.07-6.19.52-1.53-1.4-1.7-3.98-.87-5.79.43-.92 1.38-1.73 2.35-2.02 2.6-.78 5.12.54 5.54 3.29.03.17.02.35.06.51Z" style="fill:#fefefe"/><path d="M91.1 140.53c.12 2.12.16 4.24.11 6.36l-.07.06h-.66v-.98c-.02-1.54-.06-3.09-.08-4.63v-.78l.08-.05.55-.03.08.05Z" style="fill:#004479"/><path d="M91.1 140.53c-.23 0-.47.05-.7.03-.01-.82-.03-1.66-.06-2.48 0-.25.02-.49-.03-.74-.04-.3-.03-.59.03-.87.16-.05.38.17.48.29.27.32.3.66.31 1.06v.83c.02.63.01 1.25-.04 1.88Z" class="cls-49"/><path d="M90.34 136.44s.02.01 0 .03v.72c0 .05.01.11-.03.15-.11-.55-.57-.95-1.12-.98.38-.1.79-.07 1.15.08Z" style="fill:#00457a"/><path d="M97.6 148.66c.07.03.1.11.09.23.01.16.02.41-.06.53-.73.43-1.45.86-2.19 1.29-.23.13-.47.29-.7.42-.29.16-.58.33-.92.31-.59-.33-1.2-.65-1.79-.98-.26-.05-.55-.22-.73-.42-.04.04-.05.02-.03-.03-.08-.22-.11-.57-.03-.78.25.04.53.17.7.36l.19.06c.64.35 1.27.69 1.87 1.03 1.08-.68 2.21-1.33 3.4-1.95l.19-.07Z" style="fill:#06468f"/><path d="M92.03 150.46s-.03.11-.03.15c0 .48.04 1.05 0 1.52s-.36.84-.76 1.05c.12-.38.06-1.3.06-1.74l-.04-.09c-.02-.19-.1-1.26-.03-1.32.01-.01.05 0 .07 0 .25.13.48.28.73.42Zm5.35-16.37.08 6.36c-1.88.12-3.78.14-5.66.08-.2.09-.49.08-.7 0l-.03-1.81c0-.49.08-1.17-.1-1.61-.11-.29-.35-.51-.63-.65v-.03c0-.04-.03-.1-.03-.15-.01-.7.02-1.4-.03-2.09 2.36-.04 4.73-.08 7.09-.11Z" style="fill:#2497d2"/><path d="M102.23 146.76c-1.53.9-3.06 1.77-4.6 2.66-.02-.25.04-.52-.03-.76-.04-.07-.01-.09.06-.06.02-.05.05-.09.09-.12.96-.56 1.91-1.12 2.85-1.68l.2-.05h.06c.41 0 .81-.03 1.22-.03.05 0 .12-.02.15.03Z" style="fill:#05509d"/><path d="M97.46 140.45h.03v.55c.07 1.92.08 3.86.11 5.79.03 0 .02.01 0 .03l-.15.04c-1.72.03-3.45.05-5.2.08l-.28-.03s-.02.01-.03 0l-.06-.02-.14-6.31.06-.04c1.89-.03 3.77-.05 5.66-.08Z" style="fill:#0078d3"/><path d="m100.8 146.76-1.8 1.07c-.47.22-.9.52-1.34.78l-.06-.02c-.08-.57-.09-1.19 0-1.78v-.03c1.06 0 2.13-.01 3.2-.03Z" style="fill:#0077d3"/><path d="m91.27 150.01.03.03c-.05.03-.03.11-.03.15 0 .42.02.84.03 1.25-.08.42-.31.78-.67.99s-.65.15-1.06.16c.26-.1.45-.17.64-.38.35-.38.37-.7.37-1.21 0-.05.02-.12-.03-.15.05-.3 0-.87 0-1.21h.06c.22.09.43.19.64.3l.03.06Z" class="cls-49"/><path d="M91.21 146.9c.1.77.1 1.56.03 2.33-.12.02-.68-.3-.68-.34.04-.03.03-.02-.02 0 0-.63-.05-1.3-.06-1.93.03-.05.04-.05.1-.06.2-.02.43 0 .63 0Z" style="fill:#023a6a"/><path d="M91.24 149.22c0 .26.04.52.03.78-.02 0-.08 0-.12-.03-.2-.11-.4-.24-.61-.33v-.76c0-.09.02-.05.07-.02.22.11.42.24.64.36Z" style="fill:#032853"/><path d="M84.45 141.89c.19.21.35.57.44.84.64 1.96.04 4.7-2.51 4.45-2.79-.28-2.89-5.66-.06-6.02.84-.11 1.57.1 2.13.74Z" style="fill:#1079d4"/><path d="m91.8 140.53.14 6.36c-.23.09-.5.08-.73 0-.03-2.12-.08-4.24-.11-6.36h.7Z" style="fill:#006cbe"/><path d="M97.6 146.81v1.33l.06.46-.06.06c-1.04.61-2.12 1.17-3.16 1.79-.08.05-.37.27-.42.28-.04 0-.07-.01-.1-.03-.28-.12-.66-.39-.94-.55-.34-.19-.69-.38-1.04-.57l-.05-.15c-.02-.75-.04-1.51-.04-2.26-.01-.15.03-.24.12-.28 1.32-.02 2.65-.07 3.96-.09h1.67Z" style="fill:#0364b7"/><path d="M91.94 146.9h.03a.51.51 0 0 0-.06.21c-.06.81.08 1.67.03 2.48-.23-.13-.47-.24-.7-.36-.02-.77-.02-1.55-.03-2.33h.73Z" style="fill:#035aa5"/><path d="M106.27 64.8c-.4.27-5.56-6.74-6.72-6.55-.41.07-.84.79-1.02 1.19-.72 1.61-2.74 11.1-3.24 11.43-.64.42-4.5-.18-5.62.05 1.76-3.77 2.89-14.01 5.82-16.5 4.04-3.44 8.37-.6 11.25 2.7 3.53 4.06 1.31 3.29-.46 7.67Z" class="cls-46"/><path d="m79.64 64.77-2.67-4.78c.43-.54 6.83-1.27 7.99-1.85 1.89-.95-1.88-4.4-2.96-5.6-.91-1.01-4.51-4.08-4.83-4.8-.22-.5 2.3-4.99 3.07-4.82 2.44 4.11 11.16 9.3 11.17 14.23 0 6.04-7.33 6.79-11.77 7.63Z" style="fill:#f16960"/><path d="M95.78 37.23c.31.27-2.33 6.67-2.43 7.85-.09.96.74 1.25 1.57 1.17 2.09-.19 10.61-3.05 11.54-2.83.78.53 2.85 4.76 2.45 5.18-4.91 0-11.56 3.85-16.21 2.87-2.81-.59-4.83-3.29-4.82-6.15 0-.68 1.76-7.35 1.99-7.67.68-.93 4.62-.21 5.91-.42Z" class="cls-46"/><path d="m303.33 40.35.06.03-1.13 7.18-.08.03s-.02.03-.03 0c-5.35-.78-10.69-1.62-16.02-2.53l-2.55 15.99-.08.03s-.02.03-.03 0c-2.42-.28-4.82-.66-7.21-1.14 1.13-7.11 2.24-14.23 3.44-21.32a2.477 2.477 0 0 1 2.54-1.65c7.03 1.14 14.06 2.26 21.09 3.4Z" style="fill:#4285f4"/><path d="M299.58 63.67c0 .17-.02.35-.04.52s-.03.35-.06.52c-.27 1.72-.54 3.43-.82 5.15-.06.34-.14.68-.22 1.02l-.11.03c-5.35-.86-10.69-1.73-16.04-2.6l-.06-.04 1.17-7.18.08-.03h.03c5.38.76 10.74 1.63 16.08 2.6Z" style="fill:#34a853"/><path d="M309.39 48.74c-.85 5.37-1.67 10.76-2.6 16.12-.17.03-.35.01-.54-.05-2.21-.32-4.43-.7-6.67-1.13.11-.9.22-1.8.36-2.69.56-3.57 1.14-7.15 1.71-10.72.14-.89.32-1.78.49-2.67h.03c2.42.28 4.82.67 7.21 1.14Z" style="fill:#fbbc04"/><path d="m283.47 61.07-1.18 7.24c-1.68-.27-3.36-.5-5.03-.81a2.481 2.481 0 0 1-1.83-2.46c.24-1.71.56-3.41.83-5.12l7.21 1.14Z" style="fill:#188038"/><path d="M309.39 48.74c-2.4-.37-4.81-.76-7.21-1.14l1.14-7.24c1.69.27 3.38.53 5.06.81 1.1.29 1.82 1.26 1.84 2.39-.22 1.73-.56 3.46-.83 5.18Z" style="fill:#1967d2"/><path d="m306.79 64.85-8.35 6.03c.36-2.41.76-4.81 1.14-7.21 2.12.34 4.24.67 6.35 1.01.28.05.58.08.85.17Z" class="cls-6"/><path d="M302.15 47.59c-.84 5.36-1.71 10.72-2.56 16.08-5.36-.85-10.73-1.73-16.08-2.6l2.57-16.08c5.36.87 10.72 1.74 16.08 2.6Z" style="fill:#fff"/><path d="m286.41 56.01 1.49-.31c.09 1.19 1.02 1.97 2.22 1.79 1.04-.16 1.64-1.34 1.01-2.23-.48-.69-1.38-.8-2.16-.88l.21-1.39c.42 0 .84.17 1.26.13 1.79-.16 1.77-2.6-.27-2.63-.61-.01-1.11.43-1.39.94l-1.19-.75c-.14-.06 0-.24.07-.34 1.67-2.51 6.38-1.03 5.55 2.11-.16.6-.56 1.03-1.08 1.34-.08.05-.43.17-.41.24 0 .04.51.42.61.54 1.19 1.37.53 3.48-1.09 4.14-2.08.84-4.62-.41-4.82-2.72Zm12.48-5.33L297.4 60l-1.53-.21 1.18-7.31-1.71.83-.57-1.28 3.04-1.52 1.08.17z" style="fill:#1a73e8"/><path d="M203.24 148.51s.03.02 0 .03l-9.97 7.72-10.22-7.39s-.03-.02 0-.03l-.05-.67c-.07-3.35-.14-6.82-.18-10.08l.06-.16c2.44 1.76 4.88 3.52 7.31 5.28.97.7 1.92 1.42 2.89 2.11.03 0 .5-.35.57-.41 3.14-2.42 6.28-4.86 9.42-7.28l.04.21c.06 3.24.12 6.62.16 9.95l-.03.72Z" style="fill:#e94335"/><path d="M183.05 148.83v.03c.07 4.18.16 8.36.21 12.53v1.74c-.68.05-1.36.02-2.04.03-.62 0-1.25.02-1.87.03-1.37.02-2.94.36-3.93-.83-.81-.97-.59-2.22-.61-3.39-.1-5.42-.19-10.84-.26-16.27l.06-.03c2.81 2.02 5.62 4.05 8.42 6.08l.03.09Z" style="fill:#4284f3"/><path d="M211.55 142.1c.11 5.95.21 11.91.29 17.85.02 1.7-.96 2.66-2.62 2.76-1.85.11-3.74.02-5.59.09-.07 0-.12.03-.19.03v-1.57c-.06-4.24-.14-8.49-.21-12.74v-.03l.04-.1 8.21-6.32.06.02Z" style="fill:#34a753"/><path d="m211.55 142.1-8.31 6.4c-.04-2.65-.1-5.31-.15-7.97-.02-.97 0-1.94-.03-2.91 1.18-.91 2.74-2.51 4.29-2.63 2.07-.16 4.01 1.4 4.14 3.49.07 1.17.04 2.43.06 3.61Z" style="fill:#fabb04"/><path d="M182.87 137.92v.86c.08 3.34.12 6.7.18 10.04l-8.52-6.14c-.02-1.45-.13-2.92.04-4.37a3.855 3.855 0 0 1 4.67-2.75c1.07.27 2.69 1.67 3.64 2.35Z" style="fill:#c4221f"/><path d="m285.98 128.09.07-.02c2.25 2.92 4.51 5.83 6.77 8.75v.12s.03.02 0 .03c-1.55 4.11-3.21 8.18-4.98 12.2.05.05.02.07-.03.03l-.07.08-11.01 1.5-.05-.06a3.8 3.8 0 0 1 .18-1.77c2.22-5.35 4.37-10.72 6.58-16.07.46-1.11.92-2.47 1.46-3.52.27-.52.63-.93 1.08-1.28Z" style="fill:#00ac47"/><path d="M300.92 147.45s.02-.03.03 0l.1.02c2.26 2.93 4.51 5.86 6.77 8.79l-.03.08c-.55.42-1.11.63-1.79.75l-20.91 2.81c-.61.02-1.03-.09-1.57-.31v-.07c1.35-3.27 2.71-6.56 4.07-9.89l.22-.41s.03-.02.03-.03l.07-.07c4.29-.54 8.59-1.11 12.9-1.71l.1.06Z" style="fill:#2684fc"/><path d="M297.08 126.57c1.17.47 1.59 1.26 2.32 2.19 4.06 5.16 8.02 10.4 12.05 15.59.32.48.51 1.02.61 1.59-3.68.62-7.39 1.13-11.1 1.52h-.03l-.1-.02c-2.66-3.44-5.32-6.89-7.98-10.34v-.15l-.03-.1c1.4-3.42 2.8-6.84 4.21-10.26h.08Z" style="fill:#ffba00"/><path d="M312.05 145.93c.22 1.33-.59 2.81-1.09 4.04-.65 1.6-1.32 3.46-2.06 4.99-.26.54-.63 1.01-1.1 1.37l-6.85-8.89c3.7-.5 7.4-1.01 11.1-1.52Z" class="cls-6"/><path d="M287.81 149.22c-1.4 3.41-2.74 6.85-4.2 10.24-.02.05-.03.11-.09.14-1.22-.5-1.9-1.64-2.7-2.65-1.29-1.64-2.57-3.3-3.78-5-.19-.38-.32-.77-.38-1.2l11.13-1.52Z" style="fill:#0066da"/><path d="m297.08 126.57-4.25 10.37-6.85-8.85c.58-.45 1.09-.64 1.82-.76 2.59-.42 5.22-.64 7.81-1.04.51 0 1 .09 1.47.28Z" style="fill:#00832d"/><path d="M178.94 43.38c0 1.32.29 2.33.67 2.94.41.71 1.17 1.14 1.99 1.14.97 0 1.86-.24 3.57-2.61 1.37-1.9 2.99-4.56 4.08-6.24l1.84-2.83c1.28-1.97 2.76-4.15 4.46-5.64 1.39-1.2 2.88-1.88 4.39-1.88 2.53 0 4.94 1.46 6.78 4.21 2.02 3.01 3 6.8 3 10.71 0 2.33-.46 4.03-1.24 5.38-.75 1.31-2.23 2.61-4.7 2.61v-3.72c2.12 0 2.64-1.94 2.64-4.17 0-3.17-.74-6.69-2.37-9.2-1.16-1.78-2.65-2.87-4.3-2.87-1.78 0-3.22 1.34-4.83 3.74-.86 1.27-1.74 2.82-2.72 4.57l-1.09 1.92c-2.18 3.87-2.74 4.75-3.83 6.21-1.91 2.56-3.54 3.52-5.7 3.52-2.55 0-4.17-1.1-5.16-2.77-.82-1.36-1.22-3.14-1.22-5.17l3.73.14Z" style="fill:#0081fb"/><path d="M178.15 32.74c1.71-2.63 4.17-4.48 7-4.48 1.64 0 3.27.48 4.97 1.87 1.86 1.52 3.84 4.02 6.31 8.14l.89 1.48c2.14 3.57 3.36 5.4 4.07 6.27.92 1.11 1.56 1.44 2.39 1.44 2.12 0 2.64-1.94 2.64-4.17l3.29-.1c0 2.33-.46 4.03-1.24 5.38-.75 1.31-2.22 2.61-4.69 2.61-1.54 0-2.9-.33-4.4-1.75-1.16-1.09-2.51-3.02-3.55-4.76l-3.09-5.17c-1.55-2.59-2.98-4.53-3.8-5.4-.89-.95-2.03-2.08-3.85-2.08-1.47 0-2.72 1.03-3.77 2.61l-3.17-1.88Z" style="fill:url(#linear-gradient)"/><path d="M185.1 32.01c-1.47 0-2.72 1.03-3.77 2.61-1.48 2.23-2.39 5.56-2.39 8.76 0 1.32.29 2.33.67 2.94l-3.18 2.09c-.82-1.36-1.22-3.14-1.22-5.17 0-3.69 1.01-7.53 2.94-10.5 1.71-2.63 4.17-4.48 7-4.48l-.06 3.75Z" style="fill:url(#linear-gradient-2)"/></svg>