<svg xmlns="http://www.w3.org/2000/svg" id="Layer_1" data-name="Layer 1" viewBox="0 0 387.39 189.66"><defs><style>.cls-2{fill:#e4252a}</style></defs><rect width="93" height="93" x="24.69" y="54.41" rx="26" ry="26" style="fill:#e3edfc" transform="rotate(-7.74 71.213 100.898)"/><rect width="93" height="93" x="261.5" y="54.41" rx="26" ry="26" style="fill:#f4e6eb" transform="rotate(11.16 307.864 100.845)"/><rect width="93" height="93" x="142.15" y="36.69" rx="26" ry="26" style="fill:#f9cdcf" transform="rotate(-.9 188.432 82.97)"/><path d="M311.17 81.79c-.22-.1-.44-.17-.64-.32l-2.96 20.47c-.38 0-2.47-1.54-3.36-1.8-12.09-3.56-17.68 12.82-7.31 17.7 5.53 2.61 11.86-.45 13.42-6.32l3.02-20.92 11.28 4.62 1.04-7.2c-4.78-2.16-9.73-4.01-14.49-6.23Zm-.91 2.43c-.2 1.55-.42 3.1-.64 4.65.18-1.58.37-3.14.64-4.65Z" style="fill:#e70056"/><path d="m192.73 60.05.19.41c.05 4.21.16 8.39.32 12.54l11.95-.17.33.17c.12.23.16.49.18.75.12 1.6-.03 3.43 0 5.06.09 5.84.3 11.72.36 17.56.03 2.99.23 5.49-2.53 7.33-1.63 1.08-2.52.89-4.35.97-5.66.24-11.36.22-17.04.27-2.86.02-5.78.67-7.94-1.72-1.78-1.98-1.43-3.23-1.5-5.68-.29-9.42-.36-18.87-.44-28.3-.03-2.81-.62-5.41 1.82-7.49 2.04-1.74 3.66-1.35 6.12-1.42 2.08-.06 4.21-.16 6.29-.18s4.18.08 6.26-.09Z" class="cls-2"/><path d="M192.73 60.05c3.53 3.58 7.1 7.13 10.6 10.74.14.15.34.24.49.39.31.32 1.54 1.56 1.68 1.82l-12.51.18-.27-13.13Z" style="fill:#ec676a"/><path d="m186.17 93.59-.09-8.25c.87.03 1.75-.04 2.62 0 1.24.05 2.27.13 3.28.98 1.49 1.26 1.78 4.08.58 5.63-1.61 2.07-4.08 1.43-6.39 1.64Zm-5.06-2.93v3.02h-2.04l-.18-8.25h3.5c.27 0 1.06.16 1.34.26 1.9.71 2.08 3.67.28 4.64-.14.08-.8.34-.91.34h-2Zm18.99-5.5v1.77l-3.64.09v1.33l2.93-.09v1.46s.14.19.09.31h-3.02l.09 3.37h-2.13l-.09-8.16 5.77-.09Z" style="fill:#fefefe"/><path d="M189.41 87.11c.21.03.9.36 1.09.51.82.65.89 2.01.48 2.92-.43.97-1.81 1.3-2.77 1.27l-.09-4.7c.4.04.9-.06 1.29 0Zm-8.3 1.77c.03-.09-.09-.19-.09-.22v-1.38c.66.12 1.9-.43 2.11.51.1.43-.18 1.09-.65 1.09h-1.38Z" class="cls-2"/><path d="M72.19 78.25c.53.38 1.05.8 1.57 1.2 4.02 3.08 8.06 6.16 12.07 9.25l-.02.05-9.03 1.22c-.63.04-1.36-.03-1.86-.44-.76-.44-1.26-1.14-1.47-1.99l-1.22-8.91-.02-.12c-.06-.02-.1-.22-.02-.26Z" style="fill:#a5c4f9"/><path d="M86.14 91.06c-.11-.79-.2-1.58-.31-2.37l-9.05 1.23c-.67.05-1.27-.06-1.86-.39l-.06-.09a3.043 3.043 0 0 1-1.36-1.9l-1.21-8.88-.05-.02c0-.09-.03-.15-.07-.18l-17.24 2.35c-1.3.33-2.35 1.52-2.33 2.89 0 .04 0 .08-.01.13l5.24 38.55a3.08 3.08 0 0 0 3.21 2.48l26.35-3.58c1.51-.32 2.54-1.72 2.43-3.26-1.23-8.98-2.44-17.96-3.67-26.94Z" style="fill:#4485f1"/><path d="m72.19 78.25.05.38-.04-.14-17.26 2.36c-1.34.35-2.23 1.45-2.34 2.84-.02-.05-.02-.17-.02-.23.05-1.45 1.11-2.63 2.53-2.91 5.7-.75 11.39-1.57 17.09-2.3Z" style="fill:#74a4f6"/><path d="M80.16 107.87s.12-.03.14.03l.26 1.92-.06.08-15.94 2.12-.26-1.96.04-.03 15.82-2.16Zm-.69-6.03L63.46 104l-.26-1.94.01-.06 15.94-2.18.06.04.26 1.98zm.55 4.01-16.01 2.18-.26-1.98 15.97-2.21.3 2.01z" style="fill:#f1f1f1"/><path d="m76.84 112.45.26 2.02-12 1.61-.26-1.94.01-.06 11.99-1.63z" style="fill:#f0f0f0"/></svg>