<svg xmlns="http://www.w3.org/2000/svg" id="Layer_1" data-name="Layer 1" viewBox="0 0 387.39 189.66"><defs><style>.cls-1{fill:#48a4fd}</style></defs><rect width="112.26" height="112.26" x="45.95" y="37.09" rx="26" ry="26" style="fill:#f8eeff" transform="rotate(-7.74 102.103 93.187)"/><rect width="112.26" height="112.26" x="213.84" y="37.09" rx="26" ry="26" style="fill:#f0f8ff" transform="rotate(4.07 269.74 93.127)"/><path d="M104.03 116.23a5.1 5.1 0 0 1-2.16-.18 4.85 4.85 0 0 1-3.43-5.43l1.9-11.87-8.12 1.1a6.685 6.685 0 0 1-7.51-7.67l3.67-22.97a6.651 6.651 0 0 1 5.71-5.57l8.15-1.11c3.17-.43 6.09 1.79 6.51 4.96.09.68.06 1.38-.09 2.06l-2.37 10.41 5.64-.77a6.675 6.675 0 0 1 6.88 9.59l-11.03 24.65a4.9 4.9 0 0 1-3.76 2.79ZM94.7 68.05c-.97.13-1.75.88-1.9 1.85l-3.67 22.97c-.19 1.21.63 2.36 1.85 2.55.22.03.44.04.65 0l11.09-1.51a2.23 2.23 0 0 1 2.51 1.91c.03.22.03.44 0 .65l-2.36 14.8c-.05.22.09.44.3.49h.03c.21.1.46 0 .56-.2 0-.01.01-.03.02-.04l11.03-24.65c.41-.75.35-1.67-.15-2.37a2.17 2.17 0 0 0-2.1-.92l-8.83 1.2a2.23 2.23 0 0 1-2.51-1.91c-.04-.26-.02-.53.03-.8l3.08-13.54c.16-.72-.29-1.43-1.01-1.6-.15-.03-.31-.04-.47-.02l-8.15 1.11Z" style="fill:#b04bf4"/><path d="M268.88 106.34c8.49.59 15.85-5.79 16.47-14.28l.55-7.69c.6-8.49-5.79-15.86-14.28-16.47-8.49-.6-15.86 5.79-16.47 14.28l-.55 7.69c-.59 8.49 5.79 15.85 14.28 16.47Zm-4.54-17.7-5.76-.41.27-3.84 5.76.41a1.925 1.925 0 0 0 .28-3.84l-5.59-.4c1.34-5.47 6.42-9.19 12.04-8.8 5.62.41 10.13 4.81 10.67 10.42l-5.59-.4c-1.06-.08-1.98.72-2.06 1.79s.72 1.98 1.78 2.06l5.76.41-.27 3.84-5.76-.41a1.925 1.925 0 0 0-.28 3.84l5.59.4c-1.5 6.2-7.74 10-13.94 8.5a11.555 11.555 0 0 1-8.78-10.12l5.59.4a1.925 1.925 0 0 0 .28-3.84Z" class="cls-1"/><path d="M291.11 92.47c-1.06-.08-1.98.72-2.06 1.78-.69 9.55-8.98 16.73-18.52 16.06l-3.84-.27c-9.55-.69-16.73-8.98-16.06-18.52a1.925 1.925 0 0 0-3.84-.28c-.82 11.67 7.97 21.8 19.63 22.64l3.84.27c11.67.82 21.8-7.97 22.64-19.63.08-1.06-.72-1.98-1.78-2.06Z" class="cls-1"/></svg>