<svg xmlns="http://www.w3.org/2000/svg" xmlns:xlink="http://www.w3.org/1999/xlink" data-name="Layer 1" viewBox="0 0 387.39 189.66"><defs><linearGradient id="b" x1="211.78" x2="328.16" y1="102.82" y2="102.82" gradientTransform="rotate(-4.07 269.685 102.714)" gradientUnits="userSpaceOnUse"><stop offset="0" stop-color="#f0f8ff"/><stop offset="1" stop-color="#f8eeff"/></linearGradient><linearGradient id="a" x1="247.1" x2="293.21" y1="104.36" y2="104.36" gradientUnits="userSpaceOnUse"><stop offset="0" stop-color="#48a4fd"/><stop offset="1" stop-color="#b04bf4"/></linearGradient><linearGradient xlink:href="#a" id="c" x1="241.28" x2="256.46" y1="87.36" y2="87.36"/></defs><rect width="112.26" height="112.26" x="45.95" y="46.69" rx="26" ry="26" style="fill:#f8eeff" transform="rotate(-7.74 102.044 102.836)"/><rect width="112.26" height="112.26" x="213.84" y="46.69" rx="26" ry="26" style="fill:url(#b)" transform="rotate(4.07 269.658 102.711)"/><path d="M106.94 86.78a3.36 3.36 0 0 0-.64-4.7l-5.15-3.92a3.36 3.36 0 0 0-4.7.64l-3.92 5.15a3.36 3.36 0 0 0 .64 4.7s5.25 3.99 5.3 4.02l.6 4.4c-3.07 1.39-5.01 4.68-4.53 8.19s3.22 6.17 6.56 6.69l.57 4.21a4.469 4.469 0 0 0-3.83 5.04l.6 4.44a4.469 4.469 0 0 0 5.04 3.83l4.44-.6a4.469 4.469 0 0 0 3.83-5.04l-.6-4.44a4.469 4.469 0 0 0-5.04-3.83l-.57-4.21c3.07-1.39 5.01-4.68 4.53-8.19s-3.22-6.17-6.56-6.69l-.6-4.4 4.03-5.29Zm.37 37.65-4.44.6-.6-4.44 4.44-.6.6 4.44ZM96.78 85.77l2.56-3.37 3.37 2.56-2.56 3.37-3.37-2.56Zm8.85 18a3.364 3.364 0 0 1-2.87 3.78c-1.83.25-3.53-1.04-3.78-2.87s1.04-3.53 2.87-3.78 3.53 1.04 3.78 2.87Zm21.41-17.03.9 6.65c.58 4.28-2.43 8.24-6.71 8.82l-3.33.45 2 1.52c.99.75 1.18 2.15.43 3.14-.37.49-.91.79-1.48.86s-1.17-.06-1.66-.44l-4.52-3.44a4.468 4.468 0 0 1-.85-6.27l3.44-4.52c.75-.99 2.15-1.18 3.14-.43s1.18 2.15.43 3.14l-1.52 2 3.33-.45a3.359 3.359 0 0 0 2.87-3.78l-.9-6.65a3.359 3.359 0 0 0-3.78-2.87l-5.55.75c-1.22.17-2.35-.69-2.52-1.92s.69-2.35 1.92-2.52l5.55-.75c4.28-.58 8.24 2.43 8.82 6.71Zm-33.15 31.81c1.96 1.49 2.35 4.31.85 6.27l-3.44 4.52c-.37.49-.91.79-1.48.86s-1.17-.06-1.66-.44a2.236 2.236 0 0 1-.43-3.14l1.52-2-3.33.45c-4.28.58-8.24-2.43-8.82-6.71l-.9-6.65c-.58-4.28 2.43-8.24 6.71-8.82l5.55-.75c1.22-.17 2.35.69 2.52 1.92s-.69 2.35-1.92 2.52l-5.55.75a3.359 3.359 0 0 0-2.87 3.78l.9 6.65a3.359 3.359 0 0 0 3.78 2.87l3.33-.45-2-1.52a2.236 2.236 0 0 1-.43-3.14c.75-.99 2.15-1.18 3.14-.43l4.52 3.44Z" style="fill:#b04bf4"/><path d="M271.79 81.37c-5.4-.38-10.49 1.14-14.63 3.97l1.41.68c.88.42 1.42 1.35 1.35 2.33s-.73 1.82-1.66 2.12l-4.3 1.37-1.97 4.06c-.42.88-1.35 1.42-2.33 1.35a2.42 2.42 0 0 1-1.25-.47c-.65 1.88-1.1 3.87-1.25 5.95-.9 12.7 8.66 23.72 21.36 24.63 12.7.9 23.72-8.66 24.63-21.36s-8.66-23.72-21.36-24.63Zm10.4 31.29c-.88 4.1-4.75 6.85-8.93 6.55l-1.07-.08-.11 1.53c-.12 1.69-1.59 2.97-3.28 2.85s-2.97-1.59-2.85-3.28l.11-1.53-1.65-.12a8.835 8.835 0 0 1-6.56-3.67c-1.46-2.04.1-4.87 2.61-4.69.87.06 1.93.55 2.47 1.23.45.57 1.13.95 1.91 1.01l8.94.64c1.07.08 2.09-.57 2.37-1.6.33-1.2-.4-2.4-1.54-2.72l-10.54-2.9c-4.2-1.15-6.89-5.42-5.95-9.81.88-4.1 4.75-6.85 8.94-6.55l1.07.08.11-1.53c.12-1.69 1.59-2.97 3.28-2.85s2.97 1.59 2.85 3.28l-.11 1.53 1.55.11c2.72.19 5.08 1.61 6.56 3.67 1.46 2.04-.1 4.87-2.61 4.69-.87-.06-1.93-.55-2.47-1.23-.45-.57-1.13-.95-1.91-1.01l-8.84-.63c-1.07-.08-2.09.57-2.37 1.6-.34 1.2.39 2.4 1.54 2.72l10.55 2.9c4.2 1.15 6.89 5.42 5.95 9.82Z" style="fill:url(#a)"/><path d="m250.17 93.88 1.56-3.22 3.4-1.09c.74-.24 1.26-.9 1.32-1.68s-.37-1.51-1.07-1.85l-3.21-1.56-1.09-3.4c-.24-.74-.9-1.26-1.68-1.32s-1.51.37-1.85 1.07l-1.55 3.2-3.37 1.01a1.896 1.896 0 0 0-.32 3.51s3.24 1.64 3.24 1.64l1.1 3.43c.24.74.9 1.26 1.68 1.32s1.51-.37 1.85-1.07Z" style="fill:url(#c)"/></svg>