<svg xmlns="http://www.w3.org/2000/svg" data-name="Layer 1" viewBox="0 0 400 400"><rect width="387.7" height="387.7" x="6.15" y="6.15" rx="127.53" ry="127.53" style="fill:#fff;stroke:#4485f1;stroke-miterlimit:10;stroke-width:4px"/><path d="M253.07 173.48c-2.52-13.61-13.23-24.33-26.84-26.84-2.88-15.6-16.52-27.46-32.94-27.46h-40.26c-18.5 0-33.55 15.05-33.55 33.55v40.26c0 16.41 11.86 30.06 27.46 32.94 2.52 13.61 13.23 24.33 26.84 26.84 2.88 15.6 16.52 27.46 32.94 27.46h40.26c18.5 0 33.55-15.05 33.55-33.55v-40.26c0-16.41-11.86-30.06-27.46-32.94ZM132.89 193v-40.26c0-11.1 9.03-20.13 20.13-20.13h40.26c8.74 0 16.12 5.63 18.9 13.42h-32.32c-18.5 0-33.55 15.05-33.55 33.55v32.32c-7.79-2.78-13.42-10.16-13.42-18.9Zm26.85 26.84v-40.26c0-11.1 9.03-20.13 20.13-20.13h40.26c8.74 0 16.12 5.63 18.9 13.42h-32.32c-18.5 0-33.55 15.05-33.55 33.55v32.32c-7.79-2.78-13.42-10.16-13.42-18.9Zm107.36 26.84c0 11.1-9.03 20.13-20.13 20.13h-40.26c-11.1 0-20.13-9.03-20.13-20.13v-40.26c0-11.1 9.03-20.13 20.13-20.13h40.26c11.1 0 20.13 9.03 20.13 20.13v40.26Z" style="fill:#4485f1"/></svg>