<svg xmlns="http://www.w3.org/2000/svg" data-name="Layer 1" viewBox="0 0 400 400"><rect width="387.7" height="387.7" x="6.15" y="6.15" rx="127.53" ry="127.53" style="fill:#fff;stroke:#4485f1;stroke-miterlimit:10;stroke-width:4px"/><path d="M243.9 132.23h-6.07v-6.07c0-3.35-2.71-6.07-6.07-6.07s-6.07 2.72-6.07 6.07v6.07h-48.56v-6.07c0-3.35-2.71-6.07-6.07-6.07s-6.07 2.72-6.07 6.07v6.07h-6.07c-16.74 0-30.35 13.62-30.35 30.35v72.85c0 16.74 13.62 30.35 30.35 30.35h84.99c16.74 0 30.35-13.62 30.35-30.35v-72.85c0-16.74-13.62-30.35-30.35-30.35Zm-84.99 12.14h84.99c10.04 0 18.21 8.17 18.21 18.21v6.07H140.7v-6.07c0-10.04 8.17-18.21 18.21-18.21Zm84.99 109.27h-84.99c-10.04 0-18.21-8.17-18.21-18.21V180.8h121.41v54.63c0 10.04-8.17 18.21-18.21 18.21Zm0-48.56c0 3.35-2.71 6.07-6.07 6.07h-72.85c-3.36 0-6.07-2.72-6.07-6.07s2.71-6.07 6.07-6.07h72.85c3.36 0 6.07 2.72 6.07 6.07Zm-42.5 24.28c0 3.35-2.71 6.07-6.07 6.07h-30.35c-3.36 0-6.07-2.72-6.07-6.07s2.71-6.07 6.07-6.07h30.35c3.36 0 6.07 2.72 6.07 6.07Z" style="fill:#4485f1"/></svg>