<svg xmlns="http://www.w3.org/2000/svg" data-name="Layer 1" viewBox="0 0 400 400"><rect width="387.7" height="387.7" x="6.15" y="6.15" rx="127.53" ry="127.53" style="fill:#fff;stroke:#4485f1;stroke-miterlimit:10;stroke-width:4px"/><path d="M247.79 211.95c0 9.88-8.04 17.92-17.92 17.92 0 3.3-2.67 5.97-5.97 5.97s-5.97-2.68-5.97-5.97h-1.6c-6.37 0-12.33-3.43-15.52-8.96a5.968 5.968 0 1 1 10.33-5.98 6.014 6.014 0 0 0 5.18 2.99h13.55c3.3 0 5.97-2.68 5.97-5.97 0-2.26-1.62-4.17-3.85-4.54l-18.17-3.03c-8.02-1.33-13.83-8.2-13.83-16.33 0-9.88 8.04-17.92 17.92-17.92 0-3.3 2.67-5.97 5.97-5.97s5.97 2.68 5.97 5.97h1.6c6.37 0 12.33 3.43 15.52 8.96 1.65 2.86.68 6.51-2.17 8.16-2.87 1.65-6.52.67-8.16-2.18a6.014 6.014 0 0 0-5.18-2.99h-13.55c-3.3 0-5.97 2.68-5.97 5.97 0 2.26 1.62 4.17 3.85 4.54l18.17 3.03c8.02 1.33 13.83 8.2 13.83 16.33Zm23.9-41.82v59.75c0 16.47-13.4 29.87-29.87 29.87h-83.64c-16.47 0-29.87-13.4-29.87-29.87v-59.75c0-16.47 13.4-29.87 29.87-29.87h83.64c16.47 0 29.87 13.4 29.87 29.87Zm-11.95 0c0-9.88-8.04-17.92-17.92-17.92h-83.64c-9.88 0-17.92 8.04-17.92 17.92v59.75c0 9.88 8.04 17.92 17.92 17.92h83.64c9.88 0 17.92-8.04 17.92-17.92v-59.75Zm-77.67 0h-23.9c-3.3 0-5.97 2.68-5.97 5.97s2.67 5.97 5.97 5.97h23.9c3.3 0 5.97-2.68 5.97-5.97s-2.67-5.97-5.97-5.97Zm0 23.9h-23.9c-3.3 0-5.97 2.68-5.97 5.97s2.67 5.97 5.97 5.97h23.9c3.3 0 5.97-2.68 5.97-5.97s-2.67-5.97-5.97-5.97Zm0 23.89h-23.9c-3.3 0-5.97 2.68-5.97 5.97s2.67 5.97 5.97 5.97h23.9c3.3 0 5.97-2.68 5.97-5.97s-2.67-5.97-5.97-5.97Z" style="fill:#4485f1"/></svg>