<svg xmlns="http://www.w3.org/2000/svg" width="19" height="18" fill="none"><g fill="#171A1F" clip-path="url(#a)"><path d="M9.028 1.62c2.404 0 2.69.011 3.635.053.879.04 1.353.187 1.67.31.418.162.72.358 1.033.671.317.317.51.616.672 1.034.123.316.27.794.31 1.67.041.949.052 1.234.052 3.635 0 2.405-.01 2.69-.053 3.635-.038.879-.186 1.354-.31 1.67-.16.418-.358.72-.67 1.034-.317.316-.616.51-1.034.671-.317.123-.795.27-1.67.31-.95.042-1.234.052-3.635.052-2.405 0-2.69-.01-3.635-.052-.88-.04-1.354-.187-1.67-.31a2.783 2.783 0 0 1-1.034-.671 2.768 2.768 0 0 1-.671-1.034c-.123-.316-.271-.794-.31-1.67-.042-.95-.053-1.234-.053-3.635 0-2.405.011-2.69.053-3.635.039-.88.187-1.354.31-1.67.161-.418.358-.72.671-1.034.316-.316.615-.51 1.034-.671.316-.123.794-.27 1.67-.31.945-.042 1.23-.052 3.635-.052Zm0-1.62c-2.444 0-2.75.01-3.71.053C4.363.095 3.706.25 3.137.47A4.393 4.393 0 0 0 1.54 1.51 4.41 4.41 0 0 0 .5 3.105C.277 3.677.123 4.331.08 5.287.038 6.252.028 6.557.028 9s.01 2.75.052 3.709c.043.956.197 1.614.419 2.183a4.393 4.393 0 0 0 1.04 1.596 4.4 4.4 0 0 0 1.593 1.037c.573.222 1.227.377 2.183.419.96.042 1.266.053 3.71.053 2.443 0 2.748-.011 3.708-.053.956-.042 1.614-.197 2.183-.419a4.4 4.4 0 0 0 1.593-1.037 4.4 4.4 0 0 0 1.037-1.592c.222-.573.376-1.227.418-2.184.043-.96.053-1.265.053-3.708 0-2.444-.01-2.75-.053-3.71-.042-.956-.196-1.613-.418-2.183a4.216 4.216 0 0 0-1.03-1.6A4.4 4.4 0 0 0 14.923.476C14.35.253 13.697.098 12.74.056 11.777.011 11.471 0 9.028 0Z"/><path d="M9.028 4.377a4.624 4.624 0 0 0 0 9.246 4.624 4.624 0 0 0 0-9.246Zm0 7.622a3 3 0 1 1 0-5.999 3 3 0 0 1 0 5.999Zm5.885-7.804a1.08 1.08 0 1 1-2.16-.001 1.08 1.08 0 0 1 2.16 0Z"/></g><defs><clipPath id="a"><path fill="#fff" d="M.028 0h18v18h-18z"/></clipPath></defs></svg>