<svg xmlns="http://www.w3.org/2000/svg" width="170" height="76" fill="none"><path fill="url(#a)" d="M160.625 19.79c.183.028 1.496.589 1.496.722-.541.712-1.034 1.17-1.945 1.318-.629.1-1.622.164-2.278.195-1.924.09-3.873-.079-5.797-.003l1.047.188c1.578.274.874 1.369-.265 1.711-.649.195-1.833.294-2.536.332-2.068.11-4.135-.113-6.188-.137l1.628.39c1.119.11 4.713.048 5.461.66.119.1.057.107-.065.192-.422.291-1.765.678-2.312.818-2.652.688-5.141.35-7.837.172l3.516.917c-.106 2.07-3.458 1.526-4.499 2.224-.306.206-.561.91-.843 1.25-.316.376-1.295 1.406-1.69 1.577-.394.171-.87.13-1.295.397-.513.325-.588.883-.918 1.304-.989 1.277-2.458 1.188-3.56 2.05-.319.25-.462.715-.799 1.03-.197.185-1.683 1.167-1.897 1.25-.35.133-1.564-.244-2.057-.052-.316 1.314-1.02 2.012-2.421 1.95-.789-.033-1.778-.643-2.472-.523-.642.11-2.023 1.735-3.09 2.006-1.068.27-1.935-.435-3.03-.439-.387.059-.452.49-.717.73-1.605 1.457-3.903.63-5.647-.062-.561 1.14-2.343 2.3-3.577 1.998-.544-.133-2.948-1.276-3.203-1.214-.388.674-.065 1.447-.847 2.032-.676.507-.751-.01-1.217-.229-1.486-.701-1.642.551-2.509.678-.71.102-1.285-.442-2.026-.192l-1.282-1.246c.099 1.017-.415 1.215-1.302.918-.32.335 3.247 5.818 3.72 6.413 1.02 1.29 2.376 2.454 3.437 3.75 1.72 2.106 3.566 4.659 2.594 7.523-1.231.243-2.088-.623-2.979-1.297.184.828.582 1.626.748 2.457.034.168.126.538-.163.428-.377-.147-1.502-1.215-1.826-1.57-.67-.736-1.156-1.674-1.883-2.362.095.903 1.309 3.768 1.118 4.46-.07.26-.428.584-.693.632-1.18.213-1.857-1.861-2.635-2.47-.058 1.03 1.115 3.545-.163 4.096-.85.366-2.384-.236-2.768-1.078l-.452-1.444c-.156.647-.252 1.447-.497 2.057-.125.308-.486 1.026-.843.937-1.016-.256-1.71-2.693-1.788-3.651l-.779 2.163c-.911 1.054-2.036.616-2.716-.414l-.538-1.62c-.421 1.335-.57 2.91-1.757 3.8-.888-.743-1.03-1.92-1.564-2.882-.194.719-.068 1.39-.724 1.892-.915.702-2.197 1.113-2.84-.14-.442-.859.371-2.464.242-3.456l-1.748 2.498c-3.016.814-.57-3.535-.724-4.99l-2.016 2.885c-.262.288-1.231 1.112-1.56 1.18-.205.042-.215.011-.178-.177.072-.37.721-2.464.63-2.577-.68.547-1.643 1.427-2.568 1.41-.421-.007-.605-.904-.652-1.25-.504-3.702 3.155-6.984 5.171-9.67 1.697-2.263 3.135-4.905 4.169-7.537-.759.88-1.354.486-1.626-.523-.323.311-.666 1.146-1.101 1.256-.215.054-.439-.09-.687-.052-.466.065-.745.445-1.326.37-.483-.065-1.078-.73-1.503-.863-.67-.205-1.227.623-1.894.73-.843-.394-1.203-1.311-1.105-2.225-.136-.158-3.247 1.554-3.838 1.554-.293 0-1.918-.716-2.193-.921-.442-.329-.493-.86-.983-1.102-1.904.787-3.838 1.636-5.675.205-.156-.123-.217-.386-.404-.51-.752-.489-2.207.644-3.183.456-1.125-.216-2.53-1.79-3.325-1.907-1.095-.16-2.108.935-3.665.421-.976-.322-1.098-1.468-1.503-1.64a4.542 4.542 0 0 1-3.916-1.163c-.456-.42-.443-.725-1.089-1.133-1.247-.79-2.335-.458-3.42-1.8-.425-.527-.456-1.091-1.146-1.338-.632-.229-.945-.061-1.58-.506-.766-.534-1.776-2.204-2.231-2.475-1.187-.705-4.155.059-4.682-2.036l3.516-1.05-4.492.39c-1.268.058-2.478-.017-3.71-.325-.196-.049-2.294-.692-2.08-.983 1.802-.626 3.754-.688 5.648-.804l1.903-.506-8.38.376c-.878-.253-2.078-.315-2.238-1.43l1.115-.52c-2.114-.1-4.338.13-6.443 0-1.203-.076-2.308-.182-2.93-1.373.095-.41 2.26-.842 2.672-.856.524-.017.925.11 1.421.137.153.007.721.093.721-.137-.51.014-1-.143-1.486-.273-1.472-.394-3.628-.883-4.984-1.404-.622-.24-.752-.612-.949-1.208.534-.174.915-.297 1.496-.263 1.959.116 4.43 1.064 6.528 1.293.697.076 1.602.117 2.32.154.21.01.89.096.982-.136-2.251-.199-4.138-.675-6.205-1.55-.888-.377-3.01-1.257-3.455-2.03-.132-.23-.265-.466-.234-.746l12.365 2.755c-2.79-.812-5.484-1.979-8.027-3.389-1.238-.687-2.41-1.266-3.036-2.645a88.44 88.44 0 0 0 16.724 4.46l-.193-.2c-2.547-1.122-5.756-1.73-8.188-3.031-.54-.288-3.1-2.245-3.335-2.673-.054-.103-.146-.387 0-.394l19.53 5.117-8.66-3.803c-.038-.253.102-.349.326-.39 1.024-.188 3.264-.003 4.43.007.745.007 1-.12 1.857.086 3.7.89 7.592 2.909 11.295 3.966.795.181-.272-1.386-.204-1.434 3.661-.339 7.099 1.061 10.631 1.55 5.41.747 10.717-.609 16.127-.51.37.007.686.134 1.03.144 3.291.096 6.531.127 9.771.79.429.011.7-.499.85-.855.35-.852.997-3.073 1.136-3.97.126-.831-.085-1.194-.687-1.735-.289-.66 2.584-1.52 3.128-1.574 4.876-.483 4.25 4.648 6.256 7.334.19.253.429.544.772.544 1.639-.308 3.291-.609 4.95-.797 2.714-.308 7.004-.808 9.633-.654 2.968.171 5.647.688 8.721.52 4.511-.243 8.636-2.056 13.144-2.364.238-.018.483.017.721.006l-.327 1.571 11.645-4.528 4.628-.188 1.305.26-7.826 4.052 18.955-5.626c.193.175-1.007 1.355-1.17 1.51-.7.66-1.584 1.272-2.411 1.769l-7.354 3.145c5.556-.825 10.788-2.896 16.011-4.85-.5.425-.823 1.143-1.231 1.578-.87.924-4.828 2.92-6.144 3.518-1.023.466-2.118.811-3.169 1.201l.527.072 11.319-3.22a1.68 1.68 0 0 1-.204.907c-.445.797-4.114 2.515-5.097 2.864-1.298.462-2.723.668-4.069.952-.034.219.316.143.459.133 2.89-.168 5.803-1.341 8.612-1.687 1.152-.144 2.55-.144 1.203 1.215l-5.98 2.043c.863.096 1.972-.13 2.798 0l-.01-.014Z"/><defs><linearGradient id="a" x1="16.54" x2="134.04" y1="17.999" y2="53.999" gradientUnits="userSpaceOnUse"><stop stop-color="#B04BF4"/><stop offset="1" stop-color="#48A4FD"/></linearGradient></defs></svg>