<svg xmlns="http://www.w3.org/2000/svg" id="Layer_1" data-name="Layer 1" viewBox="0 0 400 400"><defs><style>.cls-1{fill:#4485f1}</style></defs><rect width="387.7" height="387.7" x="6.15" y="6.15" rx="127.53" ry="127.53" style="fill:#fff;stroke:#4485f1;stroke-miterlimit:10;stroke-width:4px"/><path d="M240.93 225.47v-15.88c0-2.93-2.37-5.29-5.29-5.29s-5.29 2.37-5.29 5.29v15.88h-47.63c-8.75 0-15.88 7.12-15.88 15.88V244c0 4.38-3.56 7.94-7.94 7.94s-7.94-3.56-7.94-7.94v-82.03c0-8.75 7.12-15.88 15.88-15.88h42.34c2.92 0 5.29-2.37 5.29-5.29s-2.37-5.29-5.29-5.29h-42.34c-14.59 0-26.46 11.87-26.46 26.46V244c0 10.21 8.31 18.52 18.52 18.52h79.39c10.21 0 18.52-8.31 18.52-18.52v-2.65c0-8.75-7.12-15.88-15.88-15.88Zm5.29 18.52c0 4.38-3.56 7.94-7.94 7.94h-62.65c1.14-2.41 1.79-5.1 1.79-7.94v-2.65c0-2.92 2.38-5.29 5.29-5.29h58.22c2.92 0 5.29 2.37 5.29 5.29v2.65Z" class="cls-1"/><path d="M172.13 172.54h15.88c2.92 0 5.29-2.37 5.29-5.29s-2.37-5.29-5.29-5.29h-15.88c-2.92 0-5.29 2.37-5.29 5.29s2.37 5.29 5.29 5.29Zm26.46 10.59h-26.46c-2.92 0-5.29 2.37-5.29 5.29s2.37 5.29 5.29 5.29h26.46c2.92 0 5.29-2.37 5.29-5.29s-2.37-5.29-5.29-5.29Zm0 21.17h-26.46c-2.92 0-5.29 2.37-5.29 5.29s2.37 5.29 5.29 5.29h26.46c2.92 0 5.29-2.37 5.29-5.29s-2.37-5.29-5.29-5.29Zm29.63-34.48 16.7 2.78c2.05.34 3.54 2.1 3.54 4.17 0 3.03-2.46 5.49-5.49 5.49h-12.45c-1.95 0-3.78-1.05-4.76-2.75a5.49 5.49 0 0 0-9.5 5.5c2.94 5.08 8.41 8.23 14.26 8.23h1.47c0 3.03 2.45 5.49 5.49 5.49s5.49-2.46 5.49-5.49c9.08 0 16.47-7.39 16.47-16.47 0-7.47-5.34-13.78-12.71-15.01l-16.7-2.78a4.221 4.221 0 0 1-3.54-4.17c0-3.03 2.46-5.49 5.49-5.49h12.45c1.95 0 3.78 1.05 4.76 2.75 1.5 2.62 4.86 3.52 7.5 2 2.62-1.52 3.52-4.88 2-7.5a16.532 16.532 0 0 0-14.26-8.23h-1.47c0-3.03-2.45-5.49-5.49-5.49s-5.49 2.46-5.49 5.49c-9.08 0-16.47 7.39-16.47 16.47 0 7.47 5.34 13.78 12.71 15.01Z" class="cls-1"/></svg>