<svg xmlns="http://www.w3.org/2000/svg" width="22" height="18" fill="none"><g fill="#171A1F" clip-path="url(#a)"><path d="M20.305 16.837a.336.336 0 0 0 .316-.216.328.328 0 0 0 .02-.133c0-.248-.15-.367-.46-.367h-.502v1.298h.189v-.566h.231l.005.007.36.56h.201l-.386-.58.026-.003Zm-.218-.13h-.219v-.439h.277c.143 0 .306.023.306.209 0 .213-.165.23-.366.23m-4.695-1.496h-2.67V11.07c0-.988-.018-2.26-1.39-2.26-1.391 0-1.604 1.076-1.604 2.188v4.214H7.053v-8.52h2.565v1.164h.036a2.798 2.798 0 0 1 1.073-1.034c.446-.242.95-.36 1.457-.342 2.708 0 3.207 1.764 3.207 4.058v4.673ZM4.04 5.528c-.307 0-.606-.09-.861-.259a1.538 1.538 0 0 1-.571-.689 1.521 1.521 0 0 1 .335-1.673 1.555 1.555 0 0 1 1.69-.333c.283.117.525.313.696.566a1.524 1.524 0 0 1-.193 1.938 1.552 1.552 0 0 1-1.096.45Zm1.336 9.683H2.7V6.692h2.675v8.52ZM16.722.001H1.358a1.323 1.323 0 0 0-.934.37c-.25.242-.392.572-.396.917v15.276c.004.345.146.675.396.916.25.242.585.375.934.372h15.364c.35.004.687-.129.937-.37a1.3 1.3 0 0 0 .399-.918V1.287a1.299 1.299 0 0 0-.4-.917 1.325 1.325 0 0 0-.936-.37"/><path d="M20.11 15.543a1.235 1.235 0 0 0-.864.363 1.211 1.211 0 0 0 .008 1.717 1.236 1.236 0 0 0 1.734 0 1.211 1.211 0 0 0 .009-1.717 1.236 1.236 0 0 0-.864-.363h-.024Zm0 2.295a1.086 1.086 0 0 1-1.008-.642 1.059 1.059 0 0 1 .215-1.167 1.08 1.08 0 0 1 1.17-.25 1.06 1.06 0 0 1 .682.975v.017c.006.277-.1.545-.293.745-.193.2-.459.316-.739.322h-.027"/></g><defs><clipPath id="a"><path fill="#fff" d="M.028 0H21.35v18H.028z"/></clipPath></defs></svg>