<svg xmlns="http://www.w3.org/2000/svg" width="500" height="500"><defs><clipPath id="a"><path d="M0 0h500v500H0z"/></clipPath></defs><g clip-path="url(#a)"><path fill="#3b82f6" d="M275.908 198.186a64.768 64.768 0 1 0-65.429 64.7 116.485 116.485 0 0 1 21.671-30.026 51.414 51.414 0 0 1-21.011 4.184c-14.43 0-25.13-5.194-31.84-16.892 0 0 11.412-9.016 31.84-9.016a75.6 75.6 0 0 1 35.273 9.378 115.917 115.917 0 0 1 28.783-15.3 63.093 63.093 0 0 0 .713-7.028Zm-64.768 0a19.43 19.43 0 1 1 19.43-19.43 19.438 19.438 0 0 1-19.43 19.43Zm12.954 194.3a12.95 12.95 0 0 1-12.954 12.954h-51.815a64.842 64.842 0 0 1-64.768-64.764V159.325a64.842 64.842 0 0 1 64.768-64.768h103.632a64.842 64.842 0 0 1 64.768 64.768v25.907a12.954 12.954 0 1 1-25.907 0v-25.907a38.908 38.908 0 0 0-38.861-38.861H159.325a38.908 38.908 0 0 0-38.861 38.861v181.351a38.908 38.908 0 0 0 38.861 38.861h51.814a12.95 12.95 0 0 1 12.954 12.953Zm90.675-168.4a90.675 90.675 0 1 0 90.675 90.675 90.783 90.783 0 0 0-90.676-90.668Zm0 155.443a64.768 64.768 0 1 1 64.768-64.768 64.842 64.842 0 0 1-64.769 64.775Zm-129.537-77.714a12.954 12.954 0 1 1 0 25.907h-25.907a12.954 12.954 0 1 1 0-25.907Zm171.26-2.746a12.942 12.942 0 0 1-.376 18.316l-28.653 27.514a30.419 30.419 0 0 1-21.412 8.692 30.8 30.8 0 0 1-21.555-8.731l-14.664-14.353a12.958 12.958 0 0 1 18.125-18.524l14.663 14.353a4.845 4.845 0 0 0 6.762 0l28.8-27.643a12.966 12.966 0 0 1 18.31.376Z"/></g></svg>